PathFileType	4	(X/Y/Z)	/Users/itak/Documents/Research/Walk-IL/dataset/trc/00323_00011.trc
DataRate	CameraRate	NumFrames	NumMarkers	Units	OrigDataRate	OrigDataStartFrame	OrigNumFrames
100.000000	100.000000	4	53	mm	100.000000	120	483
Frame#	Time	RPSI			LPSI			L3			STRN			T10			C7			CLAV			RBAK			LBAK			LSHO			LUPA			LAEL			LAOL			LWTS			LWPS			LFRA			LHPS			LHTS			RSHO			RUPA			RAEL			RAOL			RWTS			RWPS			RFRA			RIFD			RHTS			RHPS			RBHD			LFHD			RFHD			LBHD			LHIP			RHIP			RASI			LASI			LKNE			LTHI			LANK			LTIP			LTOE			LMT1			LMT5			LHEE			RKNE			RANK			RTIP			RTOE			RMT1			RMT5			RHEE			LIFD			RTHI			
		X1	Y1	Z1	X2	Y2	Z2	X3	Y3	Z3	X4	Y4	Z4	X5	Y5	Z5	X6	Y6	Z6	X7	Y7	Z7	X8	Y8	Z8	X9	Y9	Z9	X10	Y10	Z10	X11	Y11	Z11	X12	Y12	Z12	X13	Y13	Z13	X14	Y14	Z14	X15	Y15	Z15	X16	Y16	Z16	X17	Y17	Z17	X18	Y18	Z18	X19	Y19	Z19	X20	Y20	Z20	X21	Y21	Z21	X22	Y22	Z22	X23	Y23	Z23	X24	Y24	Z24	X25	Y25	Z25	X26	Y26	Z26	X27	Y27	Z27	X28	Y28	Z28	X29	Y29	Z29	X30	Y30	Z30	X31	Y31	Z31	X32	Y32	Z32	X33	Y33	Z33	X34	Y34	Z34	X35	Y35	Z35	X36	Y36	Z36	X37	Y37	Z37	X38	Y38	Z38	X39	Y39	Z39	X40	Y40	Z40	X41	Y41	Z41	X42	Y42	Z42	X43	Y43	Z43	X44	Y44	Z44	X45	Y45	Z45	X46	Y46	Z46	X47	Y47	Z47	X48	Y48	Z48	X49	Y49	Z49	X50	Y50	Z50	X51	Y51	Z51	X52	Y52	Z52	X53	Y53	Z53	

121	1.2	-1477.635131835938	982.318359375	86.03971099853516	-1477.994995117188	984.5476684570312	-41.95675277709961	-1480.50244140625	1034.621215820312	27.30598640441895	-1257.450805664062	1234.58349609375	15.91273307800293	-1497.284545898438	1155.185302734375	19.11929512023926	-1469.564697265625	1405.859375	3.216356515884399	-1309.063110351562	1357.291870117188	11.84175395965576	-1507.846435546875	1263.960327148438	69.92153930664062	-1475.590942382812	1368.177978515625	-98.28858947753906	-1390.188842773438	1389.494995117188	-152.9159698486328	-1400.148071289062	1268.820190429688	-221.2223968505859	-1372.990844726562	1064.443359375	-227.9667663574219	-1438.184204101562	1049.966064453125	-175.8827362060547	-1274.8642578125	821.5499267578125	-170.6887512207031	-1307.927001953125	811.5816650390625	-229.930908203125	-1353.363647460938	960.4080200195312	-231.5867919921875	-1309.375366210938	741.2827758789062	-223.393310546875	-1257.373168945312	746.3239135742188	-186.3441772460938	-1414.506469726562	1395.668701171875	167.6030120849609	-1422.837768554688	1330.117309570312	231.3597106933594	-1401.226318359375	1061.0380859375	261.5181579589844	-1443.585693359375	1055.261474609375	176.9026031494141	-1284.559936523438	838.3384399414062	202.7289123535156	-1317.03271484375	819.8360595703125	269.8865051269531	-1372.680908203125	994.5125122070312	266.7878723144531	-1262.522216796875	667.99169921875	199.5666809082031	-1258.1279296875	741.6847534179688	220.0237731933594	-1298.953735351562	737.1325073242188	263.5623474121094	-1431.178100585938	1613.531982421875	86.91484069824219	-1257.556518554688	1629.070922851562	-30.37164306640625	-1269.181762695312	1629.562255859375	69.83575439453125	-1440.590698242188	1605.993286132812	-58.76744842529297	-1392.59033203125	927.3826904296875	-146.6866455078125	-1399.381713867188	929.3330078125	196.3062438964844	-1294.564697265625	959.5282592773438	152.3999328613281	-1272.281127929688	957.2526245117188	-86.91127777099609	-1351.639770507812	468.9193420410156	-136.8002014160156	-1350.611572265625	609.3857421875	-143.3560180664062	-1444.074340820312	50.39010238647461	-127.8478469848633	-1399.505737304688	252.8066101074219	-143.2292022705078	-1241.669921875	47.01364135742188	-58.85881042480469	-1312.814331054688	38.61235809326172	-19.88722991943359	-1316.90869140625	45.61508941650391	-135.3372344970703	-1480.613159179688	45.34045028686523	-60.69495391845703	-1372.465087890625	463.4541015625	164.325439453125	-1442.15380859375	51.1106071472168	127.6146087646484	-1369.712768554688	342.4161987304688	150.8499755859375	-1248.863037109375	47.58090972900391	74.03961944580078	-1304.56982421875	43.20748901367188	33.16884994506836	-1339.279418945312	40.55804061889648	145.4068450927734	-1493.171264648438	50.99934768676758	80.64719390869141	-1262.22900390625	663.0460815429688	-167.6345367431641	-1311.3857421875	703.9878540039062	171.6119995117188	
122	1.21	-1476.772705078125	982.3305053710938	86.46018981933594	-1477.24853515625	984.6026611328125	-41.52280426025391	-1479.613525390625	1034.590698242188	27.67368698120117	-1256.6376953125	1234.447509765625	16.31342697143555	-1496.397094726562	1155.15283203125	19.43502807617188	-1468.631713867188	1405.848754882812	3.617293834686279	-1308.164672851562	1357.202758789062	12.26629543304443	-1506.997314453125	1263.978637695312	70.30799865722656	-1474.67138671875	1368.142456054688	-97.93882751464844	-1389.249633789062	1389.437744140625	-152.546142578125	-1399.148193359375	1268.761840820312	-220.8531799316406	-1371.793090820312	1064.4072265625	-227.5947570800781	-1437.08984375	1049.877075195312	-175.6378326416016	-1274.075561523438	821.4618530273438	-169.87744140625	-1306.5087890625	811.562744140625	-229.3802947998047	-1352.080078125	960.3800659179688	-231.1669769287109	-1307.949951171875	741.2696533203125	-222.8352966308594	-1255.927368164062	746.4834594726562	-185.7337493896484	-1413.54345703125	1395.585693359375	167.9466857910156	-1421.974731445312	1330.031982421875	231.7671508789062	-1400.417724609375	1060.941528320312	261.8966979980469	-1442.790283203125	1055.19970703125	177.3217926025391	-1283.752319335938	838.2820434570312	202.8805236816406	-1316.120849609375	819.798095703125	270.1043701171875	-1371.895385742188	994.4314575195312	267.146728515625	-1261.6064453125	668.1177978515625	199.4925994873047	-1256.042724609375	741.322265625	218.6787719726562	-1298.000854492188	737.074951171875	263.6902465820312	-1430.05859375	1613.571044921875	87.51332092285156	-1256.53369140625	1628.82373046875	-30.08917999267578	-1267.97265625	1629.303100585938	70.04398345947266	-1439.6826171875	1606.06103515625	-58.23378372192383	-1391.940063476562	927.3589477539062	-146.3351593017578	-1398.520385742188	929.2261352539062	196.6620178222656	-1293.697021484375	959.4120483398438	152.7017211914062	-1271.6083984375	957.110107421875	-86.65998840332031	-1351.526611328125	468.8715209960938	-136.7475433349609	-1350.314086914062	609.3558959960938	-143.1844329833984	-1444.112548828125	50.34436798095703	-127.8775405883789	-1399.426147460938	252.8002624511719	-143.2546844482422	-1241.659301757812	47.01517868041992	-58.86211776733398	-1312.825317382812	38.62091827392578	-19.8939151763916	-1316.914672851562	45.60555267333984	-135.3407287597656	-1480.619995117188	45.34902572631836	-60.73017120361328	-1371.718505859375	463.2470703125	164.3458251953125	-1442.118774414062	51.12335586547852	127.5561065673828	-1369.192504882812	342.2579956054688	150.8798675537109	-1248.856323242188	47.62896728515625	74.01929473876953	-1304.558227539062	43.24032974243164	33.22429656982422	-1339.287719726562	40.60301971435547	145.3626098632812	-1493.194702148438	51.02934646606445	80.61754608154297	-1260.874267578125	663.2049560546875	-166.8665924072266	-1310.67822265625	703.8018188476562	171.8788146972656	
123	1.22	-1475.897583007812	982.3477172851562	86.90425872802734	-1476.475341796875	984.6627197265625	-41.07572174072266	-1478.717529296875	1034.564697265625	28.05550956726074	-1255.7880859375	1234.348510742188	16.73967361450195	-1495.5048828125	1155.136352539062	19.78568267822266	-1467.683837890625	1405.819458007812	4.026690483093262	-1307.234497070312	1357.115478515625	12.6978006362915	-1506.124633789062	1264.007568359375	70.69565582275391	-1473.719970703125	1368.10791015625	-97.57498931884766	-1388.2744140625	1389.38037109375	-152.1612091064453	-1398.126953125	1268.699829101562	-220.4755859375	-1370.567626953125	1064.364379882812	-227.2045135498047	-1435.98046875	1049.784301757812	-175.3889770507812	-1273.252807617188	821.3689575195312	-169.0302124023438	-1305.02001953125	811.5487670898438	-228.7922821044922	-1350.763427734375	960.3491821289062	-230.7213439941406	-1306.442993164062	741.2615966796875	-222.2315521240234	-1254.450561523438	746.6334228515625	-185.0581512451172	-1412.562744140625	1395.504760742188	168.2881469726562	-1421.105102539062	1329.946655273438	232.1825256347656	-1399.609497070312	1060.851196289062	262.2898559570312	-1441.9921875	1055.133666992188	177.7495269775391	-1282.934814453125	838.2171020507812	203.0680694580078	-1315.199340820312	819.7525634765625	270.3196716308594	-1371.092651367188	994.3253173828125	267.5007629394531	-1260.689575195312	668.2650146484375	199.4422912597656	-1253.757690429688	740.8795776367188	217.1821746826172	-1297.073974609375	737.0111083984375	263.8565673828125	-1428.906860351562	1613.607177734375	88.11466217041016	-1255.482543945312	1628.559204101562	-29.81419563293457	-1266.73291015625	1629.048706054688	70.24262237548828	-1438.771362304688	1606.116943359375	-57.6906852722168	-1391.260986328125	927.332275390625	-145.9604797363281	-1397.635864257812	929.08056640625	197.0036010742188	-1292.805053710938	959.243408203125	153.0126037597656	-1270.885131835938	956.9600219726562	-86.40886688232422	-1351.4169921875	468.8141479492188	-136.6972045898438	-1350.030395507812	609.329345703125	-143.0146636962891	-1444.1611328125	50.28365325927734	-127.9112777709961	-1399.343994140625	252.7908172607422	-143.2920989990234	-1241.644897460938	47.01977157592773	-58.86919021606445	-1312.83935546875	38.63309860229492	-19.90456199645996	-1316.921630859375	45.5950927734375	-135.3461151123047	-1480.633666992188	45.36162948608398	-60.77643966674805	-1370.884155273438	463.0344543457031	164.3631744384766	-1442.086303710938	51.15447616577148	127.4949111938477	-1368.601318359375	342.0800170898438	150.8626708984375	-1248.845336914062	47.6849365234375	73.99332427978516	-1304.553833007812	43.26266479492188	33.25433731079102	-1339.300659179688	40.66146850585938	145.3083801269531	-1493.218139648438	51.05965042114258	80.57733917236328	-1259.48876953125	663.3540649414062	-166.0334167480469	-1309.947387695312	703.5772094726562	172.1314392089844	
124	1.23	-1475.014282226562	982.3726196289062	87.37336730957031	-1475.667846679688	984.7265625	-40.61337280273438	-1477.807861328125	1034.547607421875	28.46852874755859	-1254.8916015625	1234.281005859375	17.18178558349609	-1494.6015625	1155.125366210938	20.16723251342773	-1466.72314453125	1405.7744140625	4.43931245803833	-1306.272094726562	1357.023315429688	13.13205909729004	-1505.233154296875	1264.042846679688	71.08139038085938	-1472.740356445312	1368.072021484375	-97.19938659667969	-1387.262329101562	1389.321655273438	-151.7601165771484	-1397.078491210938	1268.633911132812	-220.0864562988281	-1369.321044921875	1064.3134765625	-226.7972106933594	-1434.85009765625	1049.688110351562	-175.1291961669922	-1272.314208984375	821.30908203125	-168.207275390625	-1303.47216796875	811.53955078125	-228.1697235107422	-1349.4169921875	960.3135375976562	-230.2518463134766	-1304.851196289062	741.25341796875	-221.5781707763672	-1252.955810546875	746.7544555664062	-184.3253479003906	-1411.569091796875	1395.427490234375	168.6300506591797	-1420.219848632812	1329.859252929688	232.6024169921875	-1398.798583984375	1060.764404296875	262.6962585449219	-1441.19287109375	1055.063720703125	178.181396484375	-1282.118041992188	838.143310546875	203.2843475341797	-1314.274291992188	819.6973266601562	270.5399780273438	-1370.268798828125	994.1900634765625	267.8481140136719	-1259.757446289062	668.4264526367188	199.4449157714844	-1251.506713867188	740.4052734375	215.7994689941406	-1296.170166015625	736.943359375	264.0827941894531	-1427.724487304688	1613.632568359375	88.71416473388672	-1254.412719726562	1628.285400390625	-29.5484619140625	-1265.465576171875	1628.799926757812	70.44289398193359	-1437.840087890625	1606.165771484375	-57.13497543334961	-1390.549438476562	927.3048706054688	-145.5561676025391	-1396.732299804688	928.9088134765625	197.3475952148438	-1291.88232421875	959.0213012695312	153.3305511474609	-1270.111206054688	956.7997436523438	-86.14630126953125	-1351.3125	468.7479858398438	-136.6468811035156	-1349.764282226562	609.3060302734375	-142.8493041992188	-1444.218627929688	50.20978164672852	-127.9482192993164	-1399.261596679688	252.7803344726562	-143.3401641845703	-1241.625366210938	47.02750778198242	-58.87995147705078	-1312.8564453125	38.64944839477539	-19.91921424865723	-1316.927734375	45.58361434936523	-135.3530731201172	-1480.653930664062	45.37708282470703	-60.83342742919922	-1369.968627929688	462.8249206542969	164.3885498046875	-1442.057739257812	51.21127700805664	127.4353256225586	-1367.923706054688	341.8853149414062	150.7895050048828	-1248.832153320312	47.74794006347656	73.96022033691406	-1304.562133789062	43.26338577270508	33.24161529541016	-1339.320434570312	40.73320388793945	145.2440643310547	-1493.238891601562	51.08701705932617	80.52425384521484	-1258.085205078125	663.4743041992188	-165.14306640625	-1309.197631835938	703.326416015625	172.386474609375	
